<?xml version="1.0" encoding="utf-8"?>
<!-- Generator: Adobe Illustrator 17.0.0, SVG Export Plug-In . SVG Version: 6.00 Build 0)  -->
<!DOCTYPE svg PUBLIC "-//W3C//DTD SVG 1.1//EN" "http://www.w3.org/Graphics/SVG/1.1/DTD/svg11.dtd">
<svg version="1.1" id="Layer_1" xmlns="http://www.w3.org/2000/svg" xmlns:xlink="http://www.w3.org/1999/xlink" x="0px" y="0px"
	 width="74.119px" height="56.644px" viewBox="0 0 74.119 56.644" enable-background="new 0 0 74.119 56.644" xml:space="preserve">
<g>
	<path d="M0.226,56.644c0.002-0.14,0.006-0.279,0.006-0.419c0-9.66,0-19.319,0-28.979c0-0.138,0-0.276,0-0.432
		c5.639,0,11.253,0,16.893,0c0,1.36,0,2.715,0,4.105c-4.155,0-8.296,0-12.454,0c0,7.109,0,14.183,0,21.276
		c21.666,0,43.311,0,64.978,0c0-7.04,0-14.072,0-21.13c-3.658,0-7.307,0-10.984,0c0-1.427,0-2.827,0-4.274c5.148,0,10.3,0,15.453,0
		c0,9.951,0,19.902,0,29.853C49.488,56.644,24.857,56.644,0.226,56.644z"/>
	<path d="M74.119,19.118c-0.053,0.215-0.108,0.429-0.159,0.644c-0.401,1.692-1.49,2.754-3.08,3.351
		c-1.676,0.629-3.405,0.981-5.197,0.83c-2.279-0.193-4.272-0.99-5.674-2.913c-0.467-0.64-0.722-1.334-0.731-2.148
		c-0.031-2.857-0.131-5.713-0.149-8.569c-0.02-3.201,0.021-6.402,0.036-9.604c0-0.041,0.009-0.082,0.016-0.143
		c1.142,0,2.276,0,3.456,0c0,0.134,0,0.269,0,0.404c0.001,5.21-0.002,10.421,0.008,15.631c0.001,0.534,0.047,1.073,0.127,1.601
		c0.209,1.384,0.904,2.124,2.288,2.37c1.095,0.195,2.203,0.174,3.296-0.063c1.244-0.27,1.953-1.09,2.073-2.316
		c0.125-1.267,0.139-2.549,0.144-3.824c0.016-4.48,0.006-8.96,0.006-13.44c0-0.129,0-0.257,0-0.446c1.189,0,2.365,0,3.54,0
		C74.119,6.695,74.119,12.906,74.119,19.118z"/>
	<path d="M39.948,16.474c0-3.47-0.016-6.941,0.013-10.411c0.006-0.744,0.105-1.503,0.279-2.226c0.362-1.501,1.349-2.505,2.784-3.011
		c2.78-0.98,5.603-1.112,8.424-0.181c2.458,0.811,3.557,2.452,3.543,5.156c-0.006,1.197-0.184,2.372-0.454,3.534
		c-0.34,1.461-1.329,2.303-2.705,2.751c-0.942,0.306-1.919,0.315-2.897,0.325c-0.88,0.009-1.764-0.014-2.637,0.072
		c-1.498,0.147-2.495,1.148-2.665,2.642c-0.059,0.515-0.07,1.058,0.028,1.562c0.182,0.94,0.86,1.485,1.727,1.787
		c1.04,0.363,2.098,0.676,3.138,1.039c1.051,0.366,2.087,0.773,3.133,1.152c1.986,0.72,3.011,2.178,3.161,4.238
		c0.084,1.152,0.111,2.322,0.008,3.47c-0.209,2.319-1.488,3.636-3.769,4.09c-1.746,0.348-3.505,0.527-5.28,0.371
		c-0.816-0.072-1.64-0.216-2.426-0.443c-1.811-0.524-2.86-1.789-3.199-3.621c-0.134-0.723-0.194-1.47-0.199-2.206
		c-0.02-3.363-0.009-6.726-0.009-10.089C39.947,16.474,39.947,16.474,39.948,16.474z M43.62,21.349
		c-0.011,0.114-0.022,0.177-0.023,0.24c-0.004,1.052-0.028,2.105-0.003,3.156c0.021,0.866,0.03,1.743,0.169,2.594
		c0.212,1.297,0.927,2.257,2.276,2.522c0.672,0.132,1.389,0.135,2.075,0.074c1.653-0.146,3.029-0.81,3.278-2.932
		c0.175-1.486-0.348-2.767-1.85-3.426c-0.558-0.245-1.124-0.474-1.695-0.686C46.455,22.375,45.058,21.872,43.62,21.349z
		 M43.587,9.829c0.179,0,0.296,0.007,0.412-0.001c1.583-0.106,3.167-0.208,4.749-0.324c1.425-0.104,2.295-0.814,2.575-2.133
		c0.088-0.415,0.107-0.852,0.095-1.278c-0.033-1.175-0.551-2.082-1.667-2.514c-0.64-0.248-1.333-0.414-2.016-0.484
		c-1.866-0.193-3.42,0.608-3.937,2.642C43.456,7.08,43.656,8.444,43.587,9.829z"/>
	<path d="M20.233,16.472c0-2.514-0.005-5.028,0.002-7.542c0.003-1.171,0.003-2.343,0.055-3.512c0.052-1.185,0.317-2.317,1.101-3.262
		c0.632-0.762,1.466-1.212,2.395-1.492c2.699-0.814,5.403-0.895,8.095,0.022c1.582,0.539,2.749,1.52,3.201,3.199
		c0.222,0.828,0.282,1.677,0.201,2.523c-0.09,0.948-0.198,1.901-0.394,2.832c-0.336,1.596-1.432,2.506-2.952,2.892
		c-0.709,0.18-1.46,0.226-2.195,0.263c-0.868,0.044-1.741-0.012-2.61,0.022c-0.994,0.04-1.934,0.288-2.552,1.142
		c-0.744,1.029-0.911,2.194-0.528,3.395c0.276,0.867,1.001,1.305,1.821,1.592c2.03,0.709,4.069,1.394,6.088,2.133
		c1.343,0.491,2.434,1.318,2.852,2.756c0.219,0.755,0.339,1.551,0.396,2.336c0.078,1.069,0.076,2.145-0.142,3.208
		c-0.349,1.706-1.362,2.834-3.025,3.296c-2.689,0.747-5.416,0.893-8.137,0.18c-2.152-0.564-3.387-2.074-3.55-4.289
		c-0.086-1.166-0.103-2.338-0.109-3.508c-0.015-2.729-0.005-5.458-0.005-8.187C20.237,16.472,20.235,16.472,20.233,16.472z
		 M23.959,21.33c0,2.03-0.038,3.975,0.014,5.917c0.033,1.253,0.766,2.097,1.97,2.45c0.897,0.263,1.816,0.292,2.743,0.212
		c0.673-0.058,1.315-0.205,1.857-0.634c1.89-1.495,1.543-4.701-0.695-5.69C27.943,22.743,25.958,22.087,23.959,21.33z M23.859,9.817
		c0.146,0.007,0.199,0.015,0.252,0.012c1.649-0.108,3.299-0.202,4.946-0.332c1.421-0.113,2.249-0.758,2.539-1.967
		c0.097-0.402,0.142-0.828,0.137-1.242c-0.017-1.469-0.71-2.472-2.012-2.891c-1.181-0.38-2.39-0.409-3.58-0.058
		c-1.171,0.345-2.022,1.1-2.15,2.343C23.851,7.04,23.896,8.419,23.859,9.817z"/>
	<path d="M0.111,6.655C0.153,4.75,0.42,2.971,1.897,1.625c0.834-0.759,1.847-1.164,2.938-1.359c2.182-0.39,4.359-0.398,6.491,0.287
		c1.764,0.567,3.064,1.663,3.49,3.532c0.184,0.806,0.209,1.66,0.213,2.493c0.019,3.879-0.007,7.757,0.006,11.636
		c0.01,2.96-1.899,4.575-4.168,5.283c-1.478,0.461-2.989,0.529-4.521,0.347c-1.057-0.126-2.094-0.319-3.09-0.709
		c-2.055-0.804-3.078-2.354-3.209-4.508c-0.072-1.187-0.091-2.38,0.16-3.56c0.273-1.283,0.98-2.238,2.089-2.917
		c1.134-0.694,2.389-1.097,3.63-1.539c1.2-0.427,2.405-0.841,3.593-1.297c0.978-0.375,1.722-1.001,1.953-2.089
		c0.097-0.455,0.041-0.899-0.137-1.323c-0.942-2.24-3.182-3.195-5.349-2.648c-0.994,0.251-1.67,0.944-2.177,1.797
		C3.575,5.444,3.27,5.722,2.846,5.852C1.948,6.128,1.044,6.382,0.111,6.655z M11.477,12.214c-0.111,0.008-0.145,0.003-0.173,0.013
		c-1.802,0.649-3.607,1.291-5.404,1.955c-0.599,0.222-1.134,0.566-1.552,1.062c-0.784,0.931-0.824,2.005-0.594,3.132
		c0.232,1.14,0.868,1.949,2.032,2.132c0.936,0.147,1.908,0.202,2.851,0.126c1.552-0.125,2.437-0.945,2.711-2.385
		c0.108-0.565,0.118-1.153,0.124-1.731C11.488,15.09,11.477,13.662,11.477,12.214z"/>
	<g>
		<path d="M11.966,38.166v7.376h2.927v1.844h-4.771v-9.22H11.966z"/>
		<path d="M28.216,37.83h0.193l3.882,9.556h-2.076l-0.374-0.993h-3.056l-0.361,0.993h-2.089L28.216,37.83z M29.157,44.665
			l-0.838-2.399l-0.864,2.399H29.157z"/>
		<path d="M42.26,38.153h3.649c1.638,0,2.656,1.173,2.618,2.798c-0.026,0.696-0.271,1.419-0.851,1.818
			c0.606,0.413,0.954,1.122,0.954,1.844c0,1.548-1.225,2.773-2.721,2.773h-3.65V38.153z M44.117,41.854h1.109h0.529
			c0.529,0,0.851-0.425,0.851-0.928c0-0.516-0.322-0.929-0.851-0.929h-1.638V41.854z M44.117,45.542h1.109h0.529
			c0.529,0,0.929-0.413,0.929-0.929c0-0.516-0.4-0.916-0.929-0.916h-1.638V45.542z"/>
		<path d="M58.755,44.859c1.057,0.748,2.205,0.774,2.631,0.735c0.542-0.039,1.006-0.425,0.954-0.928
			c-0.039-0.529-0.438-0.761-0.954-0.941c-1.444-0.529-2.734-1.264-2.734-2.811c0-1.547,1.07-2.734,2.605-2.811
			c0.477-0.026,1.109-0.026,2.295,0.387l-0.232,1.78c-1.019-0.413-1.599-0.4-1.883-0.387c-0.658,0.039-0.954,0.516-0.916,1.032
			c0.052,0.516,0.503,0.748,1.032,0.929c1.431,0.529,2.669,1.354,2.669,2.824c0,1.535-1.057,2.708-2.785,2.798
			c-0.516,0.039-1.664-0.026-2.914-0.671L58.755,44.859z"/>
	</g>
</g>
</svg>
