<?xml version="1.0" encoding="utf-8"?>
<!-- Generator: Adobe Illustrator 17.0.0, SVG Export Plug-In . SVG Version: 6.00 Build 0)  -->
<!DOCTYPE svg PUBLIC "-//W3C//DTD SVG 1.1//EN" "http://www.w3.org/Graphics/SVG/1.1/DTD/svg11.dtd">
<svg version="1.1" id="Layer_1" xmlns="http://www.w3.org/2000/svg" xmlns:xlink="http://www.w3.org/1999/xlink" x="0px" y="0px"
	 width="538.117px" height="143.414px" viewBox="0 0 538.117 143.414" enable-background="new 0 0 538.117 143.414"
	 xml:space="preserve">
<g>
	<g>
		<g>
			<g>
				<path fill="#ED2F25" d="M7067.037,7083.555H6939.26c-4.199,0-7.604,3.406-7.604,7.604v127.778c0,4.199,3.403,7.604,7.604,7.604
					h127.777c4.199,0,7.604-3.405,7.604-7.604V7091.16C7074.643,7086.961,7071.236,7083.555,7067.037,7083.555z"/>
				<path fill="#ED2F25" d="M6939.26,7226.756c-4.318,0-7.818-3.502-7.818-7.816l0,0v-127.78c0-4.318,3.5-7.818,7.818-7.818l0,0
					h127.777v0.213v0.213H6939.26c-4.08,0.008-7.383,3.312-7.391,7.393l0,0v127.779c0.008,4.078,3.311,7.379,7.391,7.388l0,0
					h127.777c4.08-0.008,7.381-3.31,7.389-7.388l0,0v-127.78c-0.007-4.081-3.309-7.384-7.389-7.393l0,0v-0.213v-0.213
					c4.315,0,7.816,3.5,7.818,7.818l0,0v127.779c-0.002,4.314-3.503,7.816-7.818,7.816l0,0H6939.26V7226.756z"/>
				<g>
					<path fill="#FFFFFF" d="M7046.809,7140.118c7.709-2.083,13.385-9.205,16.961-21.532l-47.537,8.469
						c-12.74,1.742-20.777,9.15-24.045,22.306L7046.809,7140.118z"/>
					<path fill="#FFFFFF" d="M7033.025,7167.88c7.709-2.071,13.361-9.209,16.959-21.521l-47.549,8.449
						c-12.752,1.756-20.776,9.141-24.059,22.314C6996.54,7174.012,7014.756,7170.943,7033.025,7167.88z"/>
					<path fill="#FFFFFF" d="M6968.652,7182.354l24.895-49.748c-13.646-1.1-23.154,4.231-28.544,15.972l-22.169,43.194
						c1.824,0.078,3.531,0.078,5.188,0C6958.117,7191.35,6965.003,7188.176,6968.652,7182.354z"/>
				</g>
			</g>
		</g>
		<g id="Forwart_1_">
			<path fill="#221F1F" d="M7117.055,7117.704h41.896c0.41,2.056,0.615,4.146,0.615,6.265c0,2.26-0.205,4.416-0.615,6.467h-26.904
				v17.354h21.358c0.41,2.192,0.615,4.312,0.615,6.368c0,2.191-0.205,4.348-0.615,6.467h-21.358v30.909
				c-2.603,0.41-5.065,0.615-7.394,0.615c-2.533,0-5.067-0.205-7.601-0.615v-73.83H7117.055z"/>
			<path fill="#221F1F" d="M7187.596,7192.766c-4.311,0-8.059-0.699-11.242-2.104c-3.183-1.401-5.819-3.353-7.904-5.854
				c-2.09-2.494-3.664-5.422-4.727-8.779c-1.062-3.352-1.59-6.98-1.59-10.882s0.528-7.565,1.59-10.985
				c1.062-3.422,2.637-6.383,4.727-8.883c2.085-2.498,4.723-4.47,7.904-5.905c3.185-1.437,6.933-2.155,11.242-2.155
				c4.314,0,8.078,0.72,11.299,2.155c3.215,1.437,5.886,3.407,8.01,5.905c2.119,2.5,3.695,5.459,4.722,8.883
				c1.026,3.42,1.542,7.084,1.542,10.985s-0.516,7.53-1.542,10.882c-1.024,3.357-2.603,6.285-4.722,8.779
				c-2.125,2.502-4.795,4.453-8.01,5.854C7195.674,7192.066,7191.91,7192.766,7187.596,7192.766z M7187.596,7181.676
				c3.836,0,6.59-1.421,8.27-4.262c1.676-2.84,2.516-6.931,2.516-12.27c0-5.34-0.84-9.432-2.516-12.27
				c-1.68-2.842-4.434-4.264-8.27-4.264c-3.763,0-6.484,1.422-8.16,4.264c-1.679,2.838-2.516,6.929-2.516,12.27
				c0,5.339,0.837,9.43,2.516,12.27C7181.109,7180.255,7183.833,7181.676,7187.596,7181.676z"/>
			<path fill="#221F1F" d="M7222.201,7138.449c1.025-0.207,2.003-0.363,2.925-0.465c0.924-0.104,1.935-0.152,3.028-0.152
				c1.027,0,2.037,0.069,3.029,0.207c0.991,0.139,1.968,0.31,2.928,0.515c0.205,0.345,0.394,0.837,0.563,1.485
				c0.169,0.651,0.325,1.338,0.464,2.056c0.135,0.72,0.255,1.438,0.357,2.155c0.103,0.72,0.188,1.322,0.258,1.799
				c1.506-2.121,3.353-4.02,5.545-5.699c2.189-1.68,4.928-2.517,8.213-2.517c0.686,0,1.474,0.036,2.362,0.104
				c0.888,0.068,1.541,0.17,1.95,0.307c0.137,0.688,0.24,1.475,0.311,2.359c0.065,0.892,0.102,1.815,0.102,2.775
				c0,1.165-0.052,2.428-0.152,3.797c-0.104,1.371-0.293,2.672-0.565,3.902c-0.755-0.133-1.592-0.205-2.515-0.205
				c-0.926,0-1.49,0-1.696,0c-1.164,0-2.462,0.119-3.901,0.36c-1.437,0.239-2.807,0.87-4.104,1.897
				c-1.304,1.028-2.382,2.569-3.233,4.621c-0.855,2.054-1.285,4.93-1.285,8.629v25.254c-1.23,0.209-2.465,0.342-3.697,0.416
				c-1.232,0.064-2.431,0.1-3.595,0.1s-2.345-0.035-3.543-0.1c-1.196-0.074-2.448-0.207-3.746-0.416L7222.201,7138.449
				L7222.201,7138.449z"/>
			<path fill="#221F1F" d="M7259.164,7138.551c1.575-0.343,3.062-0.548,4.467-0.617c1.402-0.068,2.585-0.104,3.544-0.104
				c1.368,0,2.703,0.035,4.004,0.104c1.299,0.068,2.533,0.241,3.698,0.514l8.523,39.224l9.855-39.224
				c2.12-0.41,4.447-0.617,6.979-0.617c1.781,0.068,3.254,0.138,4.418,0.207c1.164,0.067,2.189,0.203,3.08,0.41l9.653,38.506
				l8.42-38.506c1.162-0.207,2.257-0.362,3.286-0.465c1.025-0.103,2.189-0.151,3.486-0.151c0.963,0,2.107,0.036,3.442,0.104
				c1.337,0.068,2.825,0.273,4.47,0.617l-16.535,52.982c-1.23,0.203-2.547,0.341-3.951,0.41c-1.405,0.066-2.586,0.104-3.543,0.104
				c-1.026,0-2.176-0.037-3.441-0.104c-1.268-0.068-2.48-0.243-3.645-0.514l-9.652-35.117l-9.959,35.221
				c-1.302,0.203-2.654,0.341-4.059,0.41c-1.399,0.066-2.584,0.104-3.539,0.104c-0.963,0-2.074-0.037-3.34-0.104
				c-1.269-0.068-2.482-0.243-3.646-0.514L7259.164,7138.551z"/>
			<path fill="#221F1F" d="M7372.482,7156.621c0-1.641-0.272-2.979-0.818-4.005c-0.552-1.026-1.303-1.831-2.262-2.413
				c-0.959-0.579-2.139-0.973-3.541-1.18c-1.404-0.205-2.963-0.31-4.674-0.31c-3.694,0-7.633,0.72-11.81,2.157
				c-0.959-1.779-1.679-3.457-2.155-5.029c-0.479-1.574-0.72-3.461-0.72-5.65c3.015-1.027,6.024-1.775,9.037-2.257
				c3.015-0.479,5.817-0.72,8.42-0.72c7.119,0,12.681,1.713,16.688,5.135c4.002,3.424,6.004,8.897,6.004,16.426v30.809
				c-2.396,0.753-5.307,1.473-8.729,2.152c-3.424,0.685-7.29,1.027-11.604,1.027c-3.488,0-6.69-0.309-9.602-0.923
				c-2.909-0.617-5.409-1.642-7.495-3.081c-2.087-1.439-3.694-3.287-4.825-5.545c-1.131-2.26-1.693-5.031-1.693-8.314
				c0-3.287,0.699-6.041,2.104-8.268c1.401-2.225,3.218-4.005,5.442-5.341c2.223-1.333,4.705-2.291,7.44-2.874
				c2.74-0.581,5.478-0.872,8.217-0.872c1.983,0,4.176,0.101,6.571,0.306v-1.23H7372.482z M7372.482,7167.199
				c-0.818-0.137-1.711-0.26-2.67-0.363c-0.957-0.103-1.812-0.149-2.566-0.149c-3.354,0-6.007,0.601-7.956,1.794
				c-1.95,1.2-2.927,3.133-2.927,5.803c0,1.783,0.376,3.148,1.13,4.109c0.751,0.959,1.658,1.659,2.722,2.104
				c1.06,0.446,2.188,0.721,3.388,0.824c1.196,0.102,2.24,0.15,3.132,0.15c1.025,0,2.055-0.082,3.08-0.254
				c1.027-0.171,1.916-0.327,2.67-0.465V7167.2L7372.482,7167.199L7372.482,7167.199z"/>
			<path fill="#221F1F" d="M7396.615,7138.449c1.023-0.207,2.002-0.363,2.923-0.465c0.926-0.104,1.937-0.152,3.028-0.152
				c1.027,0,2.039,0.069,3.031,0.207c0.991,0.139,1.966,0.31,2.925,0.515c0.206,0.345,0.396,0.837,0.565,1.485
				c0.172,0.651,0.324,1.338,0.463,2.056c0.137,0.72,0.258,1.438,0.358,2.155c0.103,0.72,0.188,1.322,0.257,1.799
				c1.505-2.121,3.352-4.02,5.544-5.699c2.19-1.68,4.931-2.517,8.214-2.517c0.686,0,1.471,0.036,2.361,0.104
				c0.889,0.068,1.543,0.17,1.955,0.307c0.133,0.688,0.235,1.475,0.304,2.359c0.069,0.892,0.104,1.815,0.104,2.775
				c0,1.165-0.051,2.428-0.156,3.797c-0.1,1.371-0.29,2.672-0.562,3.902c-0.756-0.133-1.592-0.205-2.516-0.205s-1.49,0-1.693,0
				c-1.164,0-2.463,0.119-3.901,0.36c-1.438,0.239-2.81,0.87-4.108,1.897c-1.301,1.028-2.381,2.569-3.233,4.621
				c-0.856,2.054-1.283,4.93-1.283,8.629v25.254c-1.231,0.209-2.465,0.342-3.696,0.416c-1.23,0.064-2.433,0.1-3.597,0.1
				c-1.163,0-2.347-0.035-3.54-0.1c-1.2-0.074-2.447-0.207-3.746-0.416V7138.449z"/>
			<g>
				<path fill="#221F1F" d="M7440.372,7150.904l-6.546-0.047l-0.516-2.051l19.102-25.912h2.357v15.506h12.426
					c0.205,1.026,0.342,1.951,0.41,2.773c0.069,0.82,0.104,1.678,0.104,2.566c0,0.959-0.033,1.883-0.104,2.772
					c-0.067,0.892-0.103,3.25-0.309,4.345h-12.421l-0.106,19.477c0,2.124,0.172,3.837,0.515,5.135
					c0.345,1.301,0.837,2.33,1.49,3.081c0.647,0.753,1.454,1.267,2.413,1.54c0.955,0.271,2.089,0.41,3.389,0.41
					c1.029,0,2.037-0.082,3.029-0.256c0.99-0.171,1.865-0.322,2.618-0.464c0.481,1.304,0.821,2.655,1.026,4.058
					c0.205,1.404,0.309,2.652,0.309,3.746c0,0.756-0.02,1.388-0.055,1.899c-0.033,0.515-0.084,1.015-0.148,1.489
					c-3.154,0.754-6.402,1.131-9.758,1.131c-6.229,0-10.988-1.453-14.271-4.363c-3.287-2.91-4.93-7.65-4.93-14.225
					L7440.372,7150.904z"/>
			</g>
		</g>
	</g>
</g>
<g>
	<g>
		<path fill="#E82223" d="M328.096,71.52c-2.165,0-4.031,0-6.185,0c0-0.996,0-1.881,0-2.766c0-12.097,0.022-24.193-0.013-36.29
			c-0.011-3.848-0.151-7.741-2.033-11.208c-0.815-1.502-1.98-3.186-3.426-3.913c-6.762-3.4-15.906-1.56-16.608,9.011
			c-0.562,8.475-0.46,16.998-0.563,25.501c-0.078,6.457-0.015,12.916-0.015,19.576c-2.038,0-3.963,0-6.185,0c0-0.9,0-1.785,0-2.669
			c0-12.594,0.173-25.191-0.112-37.779c-0.079-3.476-1.105-7.093-2.442-10.338c-1.965-4.767-6.454-5.053-10.846-4.663
			c-3.735,0.331-6.528,2.415-7.647,5.971c-0.894,2.841-1.5,5.894-1.539,8.862c-0.164,12.592-0.07,25.187-0.07,37.781
			c0,0.9,0,1.8,0,2.867c-2.039,0-3.908,0-6.185,0c0-0.799,0-1.669,0-2.538c0-12.594-0.211-25.193,0.093-37.78
			c0.141-5.828,0.593-11.777,4.31-16.843c2.817-3.84,6.433-5.878,11.203-6.065c4.177-0.163,8.279,0.088,11.734,2.659
			c1.777,1.322,3.152,3.184,4.577,4.666c1.403-1.343,2.963-3.052,4.738-4.492c4.944-4.012,10.556-3.394,16.114-1.84
			c6.716,1.878,8.926,7.483,10.017,13.497c0.771,4.252,0.989,8.645,1.038,12.98C328.183,47.549,328.096,59.392,328.096,71.52z"/>
		<path fill="#E82223" d="M261.312,71.635c-3.319,0-6.454,0-9.589,0c-11.267,0-22.54,0.211-33.799-0.09
			c-5.557-0.149-10.924-1.415-15.36-5.464c-4.763-4.349-4.937-9.747-4.282-15.407c0.564-4.876,3.203-8.475,7.557-10.577
			c-1.85-1.822-3.74-3.361-5.23-5.219c-3.144-3.921-2.859-8.602-2.267-13.188c1.03-7.989,7.684-12.025,15.845-12.997
			c15.339-1.827,30.71-0.461,46.057-0.911c0.314-0.009,0.63,0.083,1.073,0.145c0,1.94,0,3.807,0,6.025c-0.898,0-1.775,0-2.652,0
			c-12.51,0-25.021-0.091-37.529,0.068c-2.877,0.037-5.833,0.64-8.594,1.495c-4.264,1.321-7.188,4.295-6.825,10.761
			c0.259,4.623,2.118,7.498,6.916,8.925c2.546,0.758,5.254,1.321,7.895,1.347c13.501,0.133,27.003,0.061,40.717,0.061
			c0,2.019,0,3.943,0,6.185c-0.867,0-1.749,0-2.631,0c-12.095,0-24.193-0.101-36.286,0.068c-3.219,0.045-6.477,0.702-9.624,1.464
			c-3.682,0.891-6.283,3.375-6.837,7.151c-0.623,4.249-0.338,8.709,3.697,11.288c2.299,1.47,5.263,2.29,8.014,2.58
			c4.986,0.526,10.036,0.535,15.061,0.581c8.615,0.079,17.232,0.022,25.848,0.022c0.893,0,1.786,0,2.823,0
			C261.312,67.87,261.312,69.572,261.312,71.635z"/>
	</g>
</g>
<g>
	<path d="M313.442,95.643c0,9.049,0,18.098,0,27.366c-1.944,0-3.725,0-5.673,0c0-11.973,0-23.926,0-36.263
		c2.553,0,5.112-0.091,7.654,0.077c0.499,0.033,1.101,0.995,1.368,1.643c3.365,8.171,6.67,16.365,10.015,24.544
		c0.253,0.619,0.689,1.164,1.433,2.39c3.728-9.905,7.227-19.202,10.745-28.555c2.898,0,5.736,0,8.739,0c0,12.074,0,24.023,0,36.179
		c-1.781,0-3.561,0-5.612,0c0-9.55,0-19.031,0-28.511c-0.185-0.037-0.368-0.075-0.553-0.112c-1.39,3.543-2.834,7.067-4.158,10.634
		c-1.912,5.151-3.922,10.278-5.517,15.525c-0.74,2.433-2.07,2.72-4.217,2.727c-2.079,0.007-3.249-0.364-4.032-2.612
		c-2.811-8.079-5.936-16.052-8.958-24.059c-0.147-0.39-0.443-0.725-0.67-1.086C313.818,95.568,313.63,95.606,313.442,95.643z"/>
	<path d="M378.468,123.222c-6.279,0-12.227,0.383-18.097-0.116c-5.116-0.433-6.951-3.398-7.093-8.112
		c-0.152-5.028,2.866-7.899,7.708-7.934c3.968-0.028,7.936-0.006,11.884-0.006c0.278-4.669-1.214-6.237-6.012-6.335
		c-4.059-0.083-8.121-0.017-12.359-0.017c0-1.357,0-2.505,0-4.089c3.315,0,6.701-0.066,10.082,0.02
		c2.839,0.072,5.713,0.093,8.501,0.552c3.519,0.58,5.273,2.622,5.348,6.18C378.566,109.853,378.468,116.343,378.468,123.222z
		 M373.074,110.856c-4.188,0.313-8.037,0.404-11.797,1.025c-0.906,0.15-2.182,2.113-2.088,3.135c0.114,1.241,1.401,3.285,2.35,3.383
		c3.791,0.391,7.647,0.161,11.535,0.161C373.074,115.943,373.074,113.707,373.074,110.856z"/>
	<path d="M473.456,123.225c0-1.673,0-3.006,0-4.632c5.013,0,9.9,0.017,14.786-0.007c2.827-0.013,4.079-1.381,3.312-3.903
		c-0.235-0.773-1.356-1.712-2.167-1.811c-3.092-0.378-6.224-0.446-9.341-0.629c-5.354-0.314-8.55-4.882-7.072-10.108
		c1.04-3.674,2.982-5.336,7.183-5.475c5.264-0.174,10.538-0.042,16.005-0.042c0,1.378,0,2.588,0,4.081
		c-3.753,0-7.439-0.052-11.121,0.026c-1.447,0.031-3.021,0.061-4.287,0.631c-0.936,0.422-1.84,1.627-2.093,2.645
		c-0.36,1.445,0.044,3.023,2.024,3.175c2.835,0.217,5.684,0.435,8.522,0.387c2.982-0.051,6.153,0.047,7.436,2.964
		c1.474,3.353,1.83,7.198-0.845,10.278c-1.05,1.21-2.998,2.236-4.587,2.31C485.4,123.39,479.565,123.225,473.456,123.225z"/>
	<path d="M446.189,96.621c0,1.48,0,2.633,0,3.923c-4.775,0.63-10.026-1.094-13.873,2.893c-0.904,0.936-1.217,2.431-2.005,4.1
		c5.635,0,10.612,0,15.794,0c0,1.435,0,2.645,0,4.111c-5.007,0-9.975,0-14.879,0c-0.951,3.985,1.171,6.797,5.121,6.922
		c3.219,0.103,6.445,0.021,9.816,0.021c0,1.59,0,2.923,0,4.899c-4.954-0.304-9.977-0.098-14.764-1.049
		c-4.959-0.984-6.333-5.577-6.886-9.846c-0.621-4.807,0.191-9.654,4.323-12.856c2.03-1.573,4.802-2.583,7.38-2.998
		C439.366,96.235,442.662,96.621,446.189,96.621z"/>
	<path d="M387.684,100.848c-1.778-0.096-3.223-0.175-4.832-0.262c0-1.249,0-2.398,0-3.857c1.446-0.07,2.962-0.142,4.722-0.227
		c0-3.198,0-6.27,0-9.559c2.025,0,3.804,0,5.844,0c0,3.085,0,6.157,0,9.574c2.679,0,5.115,0,7.698,0c0,1.498,0,2.65,0,4.143
		c-2.419,0-4.861,0-7.618,0c0,5.423-0.111,10.519,0.114,15.6c0.036,0.809,1.472,1.99,2.452,2.228c1.553,0.376,3.268,0.1,5.056,0.1
		c0,1.596,0,2.928,0,4.8c-3.002-0.213-6.037-0.124-8.932-0.714c-3.232-0.659-4.483-2.624-4.498-5.887
		C387.666,111.512,387.684,106.237,387.684,100.848z"/>
	<path d="M408.259,100.839c-1.832-0.097-3.28-0.174-4.861-0.257c0-1.297,0-2.449,0-3.817c1.525-0.095,3.045-0.19,4.806-0.3
		c0-3.222,0-6.297,0-9.553c1.776,0,3.308,0,5.198,0c0,3.051,0,6.19,0,9.582c2.709,0,5.074,0,7.663,0c0,1.462,0,2.672,0,4.136
		c-2.359,0-4.732,0-7.476,0c0,5.222-0.159,10.216,0.092,15.188c0.08,1.587,1.314,2.977,3.445,2.795
		c1.27-0.109,2.557-0.02,3.998-0.02c0,1.558,0,2.893,0,4.822c-3.143-0.253-6.384-0.154-9.422-0.881
		c-2.161-0.516-3.478-2.472-3.457-4.986C408.292,112.074,408.259,106.599,408.259,100.839z"/>
	<path d="M452.354,96.634c3.738,0,7.348-0.271,10.895,0.077c3.561,0.349,7.052,2.991,6.457,7.294
		c-0.209,1.507-0.033,3.066-0.033,4.77c-1.752,0-3.284,0-4.454,0c-0.82-2.36-1.282-4.85-2.562-6.821
		c-0.547-0.843-2.801-0.602-4.573-0.904c0,7.565,0,14.657,0,21.965c-2.006,0-3.783,0-5.73,0
		C452.354,114.349,452.354,105.708,452.354,96.634z"/>
</g>
<g>
	<path d="M47.367,107.49c-0.281,7.163,3.693,10.844,8.952,10.773c3.886-0.052,7.773,0.019,11.659,0.047
		c0.166,0.001,0.33,0.124,0.648,0.251c0,1.455,0,2.971,0,5.09c-5.228-0.251-10.424-0.621-15.627-0.716
		c-4.713-0.086-8.175-2.273-10.283-6.147c-2.186-4.018-2.692-8.469-2.221-13.092c0.4-3.926,0.986-7.642,3.36-10.986
		c2.076-2.924,4.785-4.831,8.279-5.155c5.389-0.499,10.815-0.599,16.444-0.879c0,1.816,0,3.207,0,4.89
		c-3.748,0-7.428-0.061-11.106,0.013c-6.439,0.13-10.484,4.306-10.157,10.626c6.987,0,13.994,0,21.231,0c0,1.8,0,3.375,0,5.285
		C61.497,107.49,54.422,107.49,47.367,107.49z"/>
	<path d="M92.483,96.819c0-3.503,0-6.505,0-9.698c1.749,0,3.343,0,5.079,0c0,12.033,0,23.972,0,36.055
		c-4.692,0-9.354,0.057-14.012-0.035c-1.429-0.028-2.888-0.338-4.267-0.744c-4.82-1.42-5.47-5.67-6.199-9.606
		c-0.711-3.832,0.242-7.632,1.95-11.065c1.732-3.479,5.085-4.756,8.853-4.89C86.632,96.74,89.385,96.819,92.483,96.819z
		 M92.281,118.915c0-6.298,0-12.01,0-17.947c-4.387,0.079-8.901-1.124-12.107,2.859c-1.858,2.308-2.129,9.861-0.108,12.487
		C83.403,120.651,88.034,118.054,92.281,118.915z"/>
	<path d="M184.446,123.414c-6.323,0-12.335,0.246-18.312-0.093c-3.51-0.2-6.471-2.941-6.535-7.314
		c-0.101-6.945,3.048-9.05,9.144-8.776c3.397,0.152,6.808,0.027,10.18,0.027c0.377-4.484-1.387-6.253-6.166-6.337
		c-4.052-0.071-8.107-0.015-12.308-0.015c0-1.408,0-2.561,0-3.509c6.506,0,13.014-0.168,19.504,0.088
		c2.388,0.094,4.427,2.915,4.462,5.494C184.506,109.651,184.446,116.324,184.446,123.414z M179.107,111.101
		c-4.067,0.286-7.906,0.328-11.64,0.971c-0.991,0.171-2.342,2.233-2.277,3.356c0.066,1.142,1.587,3.032,2.625,3.14
		c3.7,0.384,7.466,0.151,11.292,0.151C179.107,116.185,179.107,114.011,179.107,111.101z"/>
	<path d="M236.683,123.445c-5.04,0.166-9.239-1.022-12.044-5.335c-4.683-7.204-0.856-18.868,7.257-20.852
		c5.316-1.3,10.917-1.519,15.258,2.962c3.077,3.177,3.395,7.276,3.332,11.373c-0.022,1.394-0.482,2.829-0.976,4.16
		C247.287,121.765,242.564,123.74,236.683,123.445z M236.715,118.799c5.282-0.004,8.171-3.12,8.1-8.733
		c-0.066-5.177-3.45-9.248-8.105-9.049c-4.449,0.191-8.208,3.129-8.269,8.984C228.391,114.985,230.956,119.248,236.715,118.799z"/>
	<path d="M128.117,123.414c-5.423,0-10.752,0.536-15.915-0.148c-5.371-0.712-6.898-2.659-7.406-8.759
		c-0.476-5.716-0.102-11.501-0.102-17.471c1.915,0,3.694,0,5.798,0c0,4.482,0.13,8.942-0.029,13.389
		c-0.27,7.562,0.907,8.743,8.644,8.38c0.996-0.047,1.997-0.007,3.249-0.007c0-7.339,0-14.434,0-21.753c2.028,0,3.807,0,5.762,0
		C128.117,105.697,128.117,114.348,128.117,123.414z"/>
	<path d="M278.967,123.35c-1.909,0-3.377,0-5.228,0c0-3.52,0-6.964,0-10.408c0-1.556,0.169-3.134-0.032-4.663
		c-0.645-4.885-1.243-7.223-7.614-7.368c-1.475-0.033-2.952-0.005-4.779-0.005c0,7.495,0,14.846,0,22.36c-1.881,0-3.417,0-5.161,0
		c0-8.687,0-17.409,0-25.941c5.642,0,11.241-0.271,16.798,0.092c3.897,0.254,5.707,3.491,5.91,6.844
		C279.236,110.532,278.967,116.841,278.967,123.35z"/>
	<path d="M207.13,118.794c0,1.663,0,2.996,0,4.805c-3.031-0.208-5.995-0.082-8.798-0.685c-3.654-0.786-4.645-2.358-4.663-5.974
		c-0.027-5.201-0.007-10.402-0.007-15.89c-1.693-0.087-3.207-0.166-4.856-0.25c0-1.302,0-2.453,0-3.833
		c1.51-0.092,3.034-0.185,4.793-0.293c0-3.217,0-6.29,0-9.552c1.959,0,3.674,0,5.752,0c0,3.039,0,6.178,0,9.654
		c2.784,0,5.226,0,7.777,0c0,1.498,0,2.65,0,4.049c-2.452,0-4.825,0-7.624,0c0,5.495-0.095,10.759,0.116,16.01
		c0.027,0.684,1.548,1.67,2.516,1.875C203.632,119.027,205.25,118.794,207.13,118.794z"/>
	<path d="M155.467,96.819c0,1.506,0,2.597,0,4.087c-2.429,0-4.802-0.053-7.171,0.013c-3.172,0.088-6.429,0.328-7.859,3.749
		c-1.716,4.108-1.923,8.36,0.804,12.11c0.803,1.104,2.749,1.798,4.239,1.932c3.202,0.288,6.448,0.088,9.864,0.088
		c0,1.519,0,2.846,0,4.591c-5.384-0.062-10.965,0.914-16.184-1.179c-3.466-1.39-5.006-4.836-5.429-8.321
		c-0.333-2.744-0.078-5.651,0.45-8.384c0.948-4.904,4.884-8.242,9.964-8.635c2.946-0.228,5.925-0.047,8.889-0.05
		C153.757,96.818,154.48,96.819,155.467,96.819z"/>
	<path d="M212.178,96.939c1.689,0,3.221,0,4.918,0c0,8.756,0,17.403,0,26.273c-1.56,0-3.153,0-4.918,0
		C212.178,114.559,212.178,105.912,212.178,96.939z"/>
	<path d="M217.131,87.08c0,1.895,0,3.588,0,5.431c-1.653,0-3.182,0-4.918,0c0-1.758,0-3.516,0-5.431
		C213.796,87.08,215.324,87.08,217.131,87.08z"/>
</g>
</svg>
